# Blender v3.2.2 OBJ File: 'uncommon.blend'
# www.blender.org
mtllib uncommon.mtl
o Curve.006_Curve.016
v 0.210000 0.168596 0.171453
v 0.210000 0.510019 0.171453
v 0.210000 0.510019 -0.170042
v 0.210000 0.168596 -0.170042
v 0.210000 -0.170006 -0.170042
v 0.210000 0.171417 -0.170042
v 0.210000 0.171417 -0.511538
v 0.210000 -0.170006 -0.511538
v 0.210000 -0.170006 0.510127
v 0.210000 0.171417 0.510127
v 0.210000 0.171417 0.168631
v 0.210000 -0.170006 0.168631
v 0.210000 -0.511430 0.171453
v 0.210000 -0.170006 0.171453
v 0.210000 -0.170006 -0.170042
v 0.210000 -0.511430 -0.170042
v -0.190000 0.168596 0.171454
v -0.190000 0.510019 0.171454
v -0.190000 0.510019 -0.170042
v -0.190000 0.168596 -0.170042
v -0.190000 -0.170006 -0.170042
v -0.190000 0.171417 -0.170042
v -0.190000 0.171417 -0.511538
v -0.190000 -0.170006 -0.511538
v -0.190000 -0.170006 0.510127
v -0.190000 0.171417 0.510127
v -0.190000 0.171417 0.168631
v -0.190000 -0.170006 0.168631
v -0.190000 -0.511430 0.171454
v -0.190000 -0.170006 0.171454
v -0.190000 -0.170006 -0.170042
v -0.190000 -0.511430 -0.170042
v -0.190000 0.168596 0.171454
v 0.210000 0.168596 0.171453
v -0.190000 0.510019 0.171454
v 0.210000 0.510019 0.171453
v -0.190000 0.510019 -0.170042
v 0.210000 0.510019 -0.170042
v -0.190000 0.168596 -0.170042
v 0.210000 0.168596 -0.170042
v -0.190000 -0.170006 -0.170042
v 0.210000 -0.170006 -0.170042
v -0.190000 0.171417 -0.170042
v 0.210000 0.171417 -0.170042
v -0.190000 0.171417 -0.511538
v 0.210000 0.171417 -0.511538
v -0.190000 -0.170006 -0.511538
v 0.210000 -0.170006 -0.511538
v -0.190000 -0.170006 0.510127
v 0.210000 -0.170006 0.510127
v -0.190000 0.171417 0.510127
v 0.210000 0.171417 0.510127
v -0.190000 0.171417 0.168631
v 0.210000 0.171417 0.168631
v -0.190000 -0.170006 0.168631
v 0.210000 -0.170006 0.168631
v -0.190000 -0.511430 0.171454
v 0.210000 -0.511430 0.171453
v -0.190000 -0.170006 0.171454
v 0.210000 -0.170006 0.171453
v -0.190000 -0.170006 -0.170042
v 0.210000 -0.170006 -0.170042
v -0.190000 -0.511430 -0.170042
v 0.210000 -0.511430 -0.170042
vt 0.000000 0.000000
vt 0.666667 0.000000
vt 0.066667 0.000000
vt 0.133333 0.000000
vt 0.333333 0.000000
vt 0.200000 0.000000
vt 0.533333 0.000000
vt 0.600000 0.000000
vt 0.733333 0.000000
vt 0.266667 0.000000
vt 0.400000 0.000000
vt 0.466667 0.000000
vt 0.800000 0.000000
vt 0.933333 0.000000
vt 0.866667 0.000000
vt 1.000000 0.000000
vt 0.000000 0.000000
vt 0.066667 0.000000
vt 0.666667 0.000000
vt 0.133333 0.000000
vt 0.333333 0.000000
vt 0.200000 0.000000
vt 0.533333 0.000000
vt 0.600000 0.000000
vt 0.733333 0.000000
vt 0.266667 0.000000
vt 0.400000 0.000000
vt 0.466667 0.000000
vt 0.800000 0.000000
vt 0.866667 0.000000
vt 0.933333 0.000000
vt 1.000000 0.000000
vt 0.000000 1.000000
vt 0.250000 1.000000
vt 0.250000 0.000000
vt 0.000000 0.000000
vt 0.500000 1.000000
vt 0.500000 0.000000
vt 0.750000 1.000000
vt 0.750000 0.000000
vt 1.000000 1.000000
vt 1.000000 0.000000
vt 0.000000 1.000000
vt 0.250000 1.000000
vt 0.250000 0.000000
vt 0.000000 0.000000
vt 0.500000 1.000000
vt 0.500000 0.000000
vt 0.750000 1.000000
vt 0.750000 0.000000
vt 1.000000 1.000000
vt 1.000000 0.000000
vt 0.000000 1.000000
vt 0.250000 1.000000
vt 0.250000 0.000000
vt 0.000000 0.000000
vt 0.500000 1.000000
vt 0.500000 0.000000
vt 0.750000 1.000000
vt 0.750000 0.000000
vt 1.000000 1.000000
vt 1.000000 0.000000
vt 0.000000 1.000000
vt 0.250000 1.000000
vt 0.250000 0.000000
vt 0.000000 0.000000
vt 0.500000 1.000000
vt 0.500000 0.000000
vt 0.750000 1.000000
vt 0.750000 0.000000
vt 1.000000 1.000000
vt 1.000000 0.000000
vn 1.0000 0.0000 0.0000
vn -0.9999 0.0000 0.0113
vn -1.0000 0.0000 0.0000
vn -0.9999 0.0000 -0.0113
vn -0.9999 -0.0102 0.0000
vn -0.0000 -0.7071 0.7071
vn 0.0000 0.7071 0.7071
vn -0.0000 0.7071 -0.7071
vn -0.0000 -0.7071 -0.7071
usemtl SVGMat.001
s off
f 1/1/1 11/2/1 2/3/1
f 11/2/1 3/4/1 2/3/1
f 11/2/1 6/5/1 3/4/1
f 6/5/2 4/6/2 3/4/2
f 9/7/1 11/2/1 10/8/1
f 9/7/1 1/1/1 11/2/1
f 1/1/1 12/9/1 11/2/1
f 5/10/3 4/6/3 6/5/3
f 4/6/1 7/11/1 6/5/1
f 4/6/1 8/12/1 7/11/1
f 9/7/1 12/9/1 1/1/1
f 5/10/1 8/12/1 4/6/1
f 13/13/1 15/14/1 14/15/1
f 13/13/1 16/16/1 15/14/1
f 17/17/3 18/18/3 27/19/3
f 27/19/3 18/18/3 19/20/3
f 27/19/3 19/20/3 22/21/3
f 22/21/4 19/20/4 20/22/4
f 25/23/3 26/24/3 27/19/3
f 25/23/5 27/19/5 17/17/5
f 17/17/3 27/19/3 28/25/3
f 21/26/1 22/21/1 20/22/1
f 20/22/3 22/21/3 23/27/3
f 20/22/3 23/27/3 24/28/3
f 25/23/3 17/17/3 28/25/3
f 21/26/3 20/22/3 24/28/3
f 29/29/3 30/30/3 31/31/3
f 29/29/3 31/31/3 32/32/3
s 1
f 34/33/6 36/34/7 35/35/7 33/36/6
f 36/34/7 38/37/8 37/38/8 35/35/7
f 38/37/8 40/39/9 39/40/9 37/38/8
f 40/39/9 34/41/6 33/42/6 39/40/9
f 42/43/6 44/44/7 43/45/7 41/46/6
f 44/44/7 46/47/8 45/48/8 43/45/7
f 46/47/8 48/49/9 47/50/9 45/48/8
f 48/49/9 42/51/6 41/52/6 47/50/9
f 50/53/6 52/54/7 51/55/7 49/56/6
f 52/54/7 54/57/8 53/58/8 51/55/7
f 54/57/8 56/59/9 55/60/9 53/58/8
f 56/59/9 50/61/6 49/62/6 55/60/9
f 58/63/6 60/64/7 59/65/7 57/66/6
f 60/64/7 62/67/8 61/68/8 59/65/7
f 62/67/8 64/69/9 63/70/9 61/68/8
f 64/69/9 58/71/6 57/72/6 63/70/9
